# xmcd
#
# Track frame offsets: 
#        150
#        16348
#        31183
#        47898
#        63495
#        81511
#        101274
#        122403
#        139750
#        160644
#        178104
#        197249
#        208289
#        228259
#
# Disc length: 3255 seconds
#
# Revision: 3
# Processed by: cddbd v1.5.2PL0 Copyright (c) Steve Scherf et al.
# Submitted via: ExactAudioCopy v1.3
#
DISCID=bb0cb50e
DTITLE=Memphis La Blusera - Memphis La Blusera
DYEAR=1993
DGENRE=Blues
TTITLE0=Blues de las 6 y 30
TTITLE1=Boogie Mama
TTITLE2=Nena Segui de Largo
TTITLE3=El Amor es Movimiento
TTITLE4=Boogie del Preso
TTITLE5=Blues de Rosario
TTITLE6=Moscato Pizza y Faina
TTITLE7=El Escruche
TTITLE8=La Bifurcada
TTITLE9=El Estibador
TTITLE10=Monton de Nada
TTITLE11=Cuentan las Monedas
TTITLE12=Tonto Rompecabezas
TTITLE13=Medias de Seda Negras
EXTD=YEAR: 1993 ID3G:   0
EXTT0=
EXTT1=
EXTT2=
EXTT3=
EXTT4=
EXTT5=
EXTT6=
EXTT7=
EXTT8=
EXTT9=
EXTT10=
EXTT11=
EXTT12=
EXTT13=
PLAYORDER=
